<?xml version="1.0" encoding="UTF-8"?>
<svg width="960px" height="960px" viewBox="0 0 960 960" version="1.1" xmlns="http://www.w3.org/2000/svg" xmlns:xlink="http://www.w3.org/1999/xlink">
    <!-- Generator: Sketch 60.1 (88133) - https://sketch.com -->
    <title>ledstrip</title>
    <desc>Created with Sketch.</desc>
    <g id="ledstrip" stroke="none" stroke-width="1" fill="none" fill-rule="evenodd">
        <path d="M670.288098,69.5259641 L670.187073,69.7055245 C667.996137,73.5852259 666.499261,77.9232781 665.870266,82.5600072 L665.870266,82.5600072 L665.763307,83.3482859 C664.507105,92.6041263 662.959001,103.934002 661.118996,117.337913 C658.145156,139.001494 642.403475,270.195829 612.451441,409.799546 C609.351894,424.246251 606.124137,438.942729 602.768168,453.88898 C585.139728,498.882103 571.447659,533.900828 561.68975,558.94995 C523.890615,655.982531 462.052432,845.769883 349.804235,904.700407 C343.309852,908.109971 336.931176,910.901007 330.697365,913 C315.69689,918.050825 280.464435,905.171939 225,874.363343 L228.165818,868.385653 C286.955698,898.723752 320.142102,890.057022 329.688558,878.827935 C338.775089,868.139838 289.532442,883.119846 273.182379,824.162952 C343.514362,772.490532 411.087648,672.8474 475.904523,525.232866 C587.956565,270.044536 651.06261,77.1229463 663.260164,67.7540661 C665.112531,66.3312723 667.455176,66.921905 670.288098,69.5259641 Z" id="Combined-Shape" fill="#000000"></path>
        <path d="M163.490008,490.556065 C157.839007,540.212002 154.2195,590.832068 153.88212,638.230776 C121.357155,692.361796 90.8398413,733.161491 62.3309443,760.629447 C-59.7401632,878.24339 -114.066264,889.941742 -154.688755,908.763186 C-181.770415,921.310815 -181.770415,905.987916 -154.688755,862.794488 C-41.5558776,753.207559 36.4465737,657.446328 79.3185992,575.510796 C122.190625,493.575264 159.090791,387.815414 190.019098,258.231247 C198.290493,250.052488 206.280886,242.212543 213.990279,234.711413 C188.478293,333.612439 171.645484,418.893027 163.490008,490.556065 Z M355.57044,199.496973 C342.426101,233.555584 329.498908,266.172804 316.788859,297.348631 C331.097334,245.996698 348.889563,189.086504 370.165933,126.610791 L371.452427,122.838792 C372.140552,120.82421 372.577201,118.780047 372.777794,116.741982 C376.300301,136.822403 370.564354,164.407502 355.57044,199.496973 Z" id="Combined-Shape" fill="#000000"></path>
        <path d="M1083.95886,118.614402 C989.746052,231.39084 915.742507,326.977657 861.948222,405.374854 C809.305398,482.093967 738.090411,642.969015 648.303261,888 L645.034945,875.606521 C649.146833,870.592656 652.1725,864.587727 653.695091,857.898663 L653.695091,857.898663 L655.005464,852.139957 C698.116837,662.613012 728.267638,523.611164 745.457867,435.134415 C749.354604,415.078219 753.261136,394.701448 757.177463,374.004103 C867.57763,230.73527 1013.21807,83.6911495 1070.8156,62.1689909 C1116.88665,44.9538678 1121.26774,63.7690049 1083.95886,118.614402 Z" id="Combined-Shape" fill="#000000"></path>
        <path d="M255.662859,73.2288934 C202.726158,239.978561 169.740103,377.259246 156.704695,485.070946 C136.353602,653.388344 139.714079,832.297691 214.096688,872.770537 C288.479298,913.243382 330.011833,903.735681 341.37924,891.150511 C352.746647,878.565342 281.959313,900.008137 273.670661,806.814549 C265.382008,713.620961 265.005192,559.497668 291.239,425.219517 C307.823703,340.330454 340.083163,231.8743 388.017379,99.8510552 L388.017378,99.8510546 C392.726084,86.8820585 386.899323,72.4494281 374.50632,66.384756 C356.281559,57.4662398 339.79783,52.0326711 325.055132,50.0840498 C313.025142,48.4939815 299.693012,48.3493531 285.058744,49.6501646 L285.058744,49.6501636 C271.402383,50.8640507 259.811302,60.1613717 255.662859,73.2288934 Z" id="Path-12" stroke="#000000" stroke-width="30" stroke-linejoin="round"></path>
        <path d="M699.743267,51.4442988 C713.623541,50.7493146 727.394217,51.4906733 741.055294,53.6683749 C752.02618,55.4172353 763.032632,57.2748083 774.07465,59.2410941 L774.07465,59.2410938 C795.183015,62.9999247 809.298763,83.0929966 805.676864,104.225288 C785.350471,222.821433 765.277472,333.124475 745.457867,435.134415 C728.093999,524.504869 697.506408,665.426285 653.695092,857.898663 L653.695091,857.898663 C648.961173,878.695765 629.69758,892.879599 608.432744,891.225445 C593.396514,890.055803 581.170937,888.084021 571.756013,885.310099 C562.010615,882.438809 549.535328,877.298949 534.330153,869.89052 L534.330153,869.890519 C514.344235,860.152765 504.182631,837.515029 510.189129,816.109825 C552.917802,663.838747 587.005239,528.401988 612.451441,409.799546 C642.403475,270.195829 658.145156,139.001494 661.118996,117.337913 C663.011573,103.551033 664.59533,91.9583979 665.870267,82.5600074 L665.870266,82.5600072 C668.199876,65.3869363 682.434588,52.3109431 699.743267,51.4442988 Z" id="Path-14" stroke="#000000" stroke-width="30" stroke-linejoin="round"></path>
    </g>
</svg>